<svg width="180" height="86" viewBox="0 0 180 86" fill="none" xmlns="http://www.w3.org/2000/svg">
<path d="M105.565 10L43.486 30.2681L105.565 18.7319L46.0052 38.1714L144.251 17.2022L3 58.6945L177 20.4527L43.486 57.5473L144.251 39.7011L62.3795 64.4945L138.313 49.1341L89.3702 76.9231" stroke="#1E1E1E" stroke-width="20"/>
<path d="M64.2141 53L59.4289 44.1133V53H53.9602V33.8594H59.4289L64.2141 43.4297L68.9992 33.8594H74.468V53H68.9992V44.1133L64.2141 53ZM79.7945 43.9629L79.4664 43.4297L72.9586 33.8594H79.152L82.4879 38.8359L85.8922 33.8594H92.0992L85.6734 43.4707L85.2633 44.0859V53H79.7945V43.9629ZM96.1133 47.5312H101.582V53H90.6445V33.8594H96.1133V47.5312ZM108.959 53C106.316 53 104.06 52.0658 102.192 50.1973C100.323 48.3288 99.3891 46.0729 99.3891 43.4297C99.3891 40.7865 100.323 38.5306 102.192 36.6621C104.06 34.7936 106.316 33.8594 108.959 33.8594C111.603 33.8594 113.858 34.7936 115.727 36.6621C117.595 38.5306 118.53 40.7865 118.53 43.4297C118.53 46.0729 117.595 48.3288 115.727 50.1973C113.858 52.0658 111.603 53 108.959 53ZM108.959 47.5312C110.09 47.5312 111.056 47.1302 111.858 46.3281C112.66 45.526 113.061 44.5599 113.061 43.4297C113.061 42.2995 112.66 41.3333 111.858 40.5312C111.056 39.7292 110.09 39.3281 108.959 39.3281C107.829 39.3281 106.863 39.7292 106.061 40.5312C105.259 41.3333 104.858 42.2995 104.858 43.4297C104.858 44.5599 105.259 45.526 106.061 46.3281C106.863 47.1302 107.829 47.5312 108.959 47.5312ZM129.571 47.5312V42.0625H135.04V53H127.52C124.877 53 122.621 52.0658 120.753 50.1973C118.884 48.3288 117.95 46.0729 117.95 43.4297C117.95 40.7865 118.884 38.5306 120.753 36.6621C122.621 34.7936 124.877 33.8594 127.52 33.8594H133.673V39.3281H127.52C126.39 39.3281 125.424 39.7292 124.622 40.5312C123.82 41.3333 123.419 42.2995 123.419 43.4297C123.419 44.5599 123.82 45.526 124.622 46.3281C125.424 47.1302 126.39 47.5312 127.52 47.5312H129.571Z" fill="#F9F8F4"/>
</svg>
